<svg xmlns="http://www.w3.org/2000/svg" xmlns:xlink="http://www.w3.org/1999/xlink" width="1920" zoomAndPan="magnify" viewBox="0 0 1440 809.999993" height="1080" preserveAspectRatio="xMidYMid meet" version="1.0"><defs><clipPath id="4fe41366ce"><path d="M 127.648438 467.847656 L 175.410156 467.847656 L 175.410156 516.355469 L 127.648438 516.355469 Z M 127.648438 467.847656 " clip-rule="nonzero"/></clipPath><clipPath id="75c47655d2"><path d="M 151.992188 490.523438 L 138.375 467.847656 L 127.648438 467.847656 L 146.386719 498.96875 L 146.386719 516.238281 L 156.601562 516.238281 L 156.601562 499.082031 L 156.703125 498.953125 L 175.410156 467.847656 L 165.625 467.847656 Z M 151.992188 490.523438 " clip-rule="nonzero"/></clipPath><clipPath id="867940cc69"><path d="M 0.648438 0.847656 L 48.410156 0.847656 L 48.410156 49.238281 L 0.648438 49.238281 Z M 0.648438 0.847656 " clip-rule="nonzero"/></clipPath><clipPath id="2dc03c9189"><path d="M 24.992188 23.523438 L 11.375 0.847656 L 0.648438 0.847656 L 19.386719 31.96875 L 19.386719 49.238281 L 29.601562 49.238281 L 29.601562 32.082031 L 29.703125 31.953125 L 48.410156 0.847656 L 38.625 0.847656 Z M 24.992188 23.523438 " clip-rule="nonzero"/></clipPath><clipPath id="1b78354f9f"><rect x="0" width="49" y="0" height="50"/></clipPath><clipPath id="026ccf753e"><path d="M 212.21875 466.988281 L 265.460938 466.988281 L 265.460938 517.101562 L 212.21875 517.101562 Z M 212.21875 466.988281 " clip-rule="nonzero"/></clipPath><clipPath id="e77f4e6da2"><path d="M 252.789062 500.585938 C 251.402344 503.101562 249.453125 505.066406 246.988281 506.453125 C 244.527344 507.875 241.75 508.554688 238.742188 508.554688 C 235.703125 508.554688 232.925781 507.875 230.460938 506.453125 C 228.015625 505.066406 226.066406 503.082031 224.679688 500.585938 C 223.289062 498.09375 222.546875 495.234375 222.546875 492.042969 C 222.546875 488.886719 223.257812 486.027344 224.679688 483.515625 C 226.066406 481.003906 228.015625 479.039062 230.460938 477.648438 C 232.925781 476.226562 235.703125 475.515625 238.742188 475.515625 C 241.75 475.515625 244.527344 476.226562 246.988281 477.648438 C 249.433594 479.039062 251.386719 481.019531 252.789062 483.515625 C 254.210938 486.011719 254.921875 488.871094 254.921875 492.042969 C 254.921875 495.234375 254.210938 498.09375 252.789062 500.585938 M 252.34375 470.246094 C 248.34375 468.097656 243.765625 466.988281 238.757812 466.988281 C 233.71875 466.988281 229.140625 468.097656 225.089844 470.246094 C 221.09375 472.425781 217.902344 475.433594 215.636719 479.203125 C 213.355469 483.003906 212.21875 487.300781 212.21875 492.027344 C 212.21875 496.785156 213.355469 501.082031 215.636719 504.882812 C 217.917969 508.652344 221.109375 511.660156 225.089844 513.84375 C 229.105469 515.992188 233.71875 517.097656 238.757812 517.097656 C 243.765625 517.097656 248.34375 515.992188 252.34375 513.84375 C 256.34375 511.660156 259.53125 508.652344 261.828125 504.882812 C 264.125 501.082031 265.265625 496.753906 265.265625 492.027344 C 265.265625 487.316406 264.125 483.003906 261.828125 479.203125 C 259.53125 475.433594 256.34375 472.425781 252.34375 470.246094 " clip-rule="nonzero"/></clipPath><clipPath id="46cce569b6"><path d="M 0.21875 0.988281 L 53.441406 0.988281 L 53.441406 51.101562 L 0.21875 51.101562 Z M 0.21875 0.988281 " clip-rule="nonzero"/></clipPath><clipPath id="d181d108ce"><path d="M 40.789062 34.585938 C 39.402344 37.101562 37.453125 39.066406 34.988281 40.453125 C 32.527344 41.875 29.75 42.554688 26.742188 42.554688 C 23.703125 42.554688 20.925781 41.875 18.460938 40.453125 C 16.015625 39.066406 14.066406 37.082031 12.679688 34.585938 C 11.289062 32.09375 10.546875 29.234375 10.546875 26.042969 C 10.546875 22.886719 11.257812 20.027344 12.679688 17.515625 C 14.066406 15.003906 16.015625 13.039062 18.460938 11.648438 C 20.925781 10.226562 23.703125 9.515625 26.742188 9.515625 C 29.75 9.515625 32.527344 10.226562 34.988281 11.648438 C 37.433594 13.039062 39.386719 15.019531 40.789062 17.515625 C 42.210938 20.011719 42.921875 22.871094 42.921875 26.042969 C 42.921875 29.234375 42.210938 32.09375 40.789062 34.585938 M 40.34375 4.246094 C 36.34375 2.097656 31.765625 0.988281 26.757812 0.988281 C 21.71875 0.988281 17.140625 2.097656 13.089844 4.246094 C 9.09375 6.425781 5.902344 9.433594 3.636719 13.203125 C 1.355469 17.003906 0.21875 21.300781 0.21875 26.027344 C 0.21875 30.785156 1.355469 35.082031 3.636719 38.882812 C 5.917969 42.652344 9.109375 45.660156 13.089844 47.84375 C 17.105469 49.992188 21.71875 51.097656 26.757812 51.097656 C 31.765625 51.097656 36.34375 49.992188 40.34375 47.84375 C 44.34375 45.660156 47.53125 42.652344 49.828125 38.882812 C 52.125 35.082031 53.265625 30.753906 53.265625 26.027344 C 53.265625 21.316406 52.125 17.003906 49.828125 13.203125 C 47.53125 9.433594 44.34375 6.425781 40.34375 4.246094 " clip-rule="nonzero"/></clipPath><clipPath id="f40e0b4108"><rect x="0" width="54" y="0" height="52"/></clipPath><clipPath id="fa473c8dc2"><path d="M 307.539062 466.988281 L 354.292969 466.988281 L 354.292969 517.199219 L 307.539062 517.199219 Z M 307.539062 466.988281 " clip-rule="nonzero"/></clipPath><clipPath id="26466152ef"><path d="M 326.035156 477.582031 C 328.59375 476.210938 331.519531 475.5 334.792969 475.5 C 339.75 475.5 344.082031 477.320312 347.648438 480.855469 L 354.128906 474.890625 C 351.882812 472.410156 349.070312 470.492188 345.832031 469.136719 C 342.378906 467.714844 338.460938 466.988281 334.199219 466.988281 C 329.140625 466.988281 324.511719 468.078125 320.464844 470.230469 C 316.414062 472.359375 313.226562 475.367188 310.945312 479.152344 C 308.679688 482.921875 307.539062 487.285156 307.539062 492.027344 C 307.539062 496.804688 308.679688 501.167969 310.960938 504.949219 C 313.242188 508.71875 316.429688 511.726562 320.398438 513.859375 C 324.414062 516.007812 328.992188 517.097656 334.015625 517.097656 C 337.535156 517.097656 341.074219 516.535156 344.542969 515.476562 C 347.882812 514.4375 350.890625 512.964844 353.46875 511.082031 L 353.46875 491.910156 L 344.210938 491.910156 L 344.210938 506.171875 L 343.867188 506.371094 C 341.140625 507.808594 338.046875 508.554688 334.628906 508.554688 C 331.421875 508.554688 328.496094 507.875 326 506.472656 C 323.472656 505.050781 321.472656 503.082031 320.035156 500.570312 C 318.613281 498.058594 317.902344 495.214844 317.902344 492.027344 C 317.902344 488.820312 318.613281 485.929688 320.035156 483.433594 C 321.472656 480.921875 323.503906 478.953125 326.035156 477.582031 " clip-rule="nonzero"/></clipPath><clipPath id="1b096b67a4"><path d="M 0.539062 0.988281 L 47.238281 0.988281 L 47.238281 51.199219 L 0.539062 51.199219 Z M 0.539062 0.988281 " clip-rule="nonzero"/></clipPath><clipPath id="bea80d8aa8"><path d="M 19.035156 11.582031 C 21.59375 10.210938 24.519531 9.5 27.792969 9.5 C 32.75 9.5 37.082031 11.320312 40.648438 14.855469 L 47.128906 8.890625 C 44.882812 6.410156 42.070312 4.492188 38.832031 3.136719 C 35.378906 1.714844 31.460938 0.988281 27.199219 0.988281 C 22.140625 0.988281 17.511719 2.078125 13.464844 4.230469 C 9.414062 6.359375 6.226562 9.367188 3.945312 13.152344 C 1.679688 16.921875 0.539062 21.285156 0.539062 26.027344 C 0.539062 30.804688 1.679688 35.167969 3.960938 38.949219 C 6.242188 42.71875 9.429688 45.726562 13.398438 47.859375 C 17.414062 50.007812 21.992188 51.097656 27.015625 51.097656 C 30.535156 51.097656 34.074219 50.535156 37.542969 49.476562 C 40.882812 48.4375 43.890625 46.964844 46.46875 45.082031 L 46.46875 25.910156 L 37.210938 25.910156 L 37.210938 40.171875 L 36.867188 40.371094 C 34.140625 41.808594 31.046875 42.554688 27.628906 42.554688 C 24.421875 42.554688 21.496094 41.875 19 40.472656 C 16.472656 39.050781 14.472656 37.082031 13.035156 34.570312 C 11.613281 32.058594 10.902344 29.214844 10.902344 26.027344 C 10.902344 22.820312 11.613281 19.929688 13.035156 17.433594 C 14.472656 14.921875 16.503906 12.953125 19.035156 11.582031 " clip-rule="nonzero"/></clipPath><clipPath id="2af69384e0"><rect x="0" width="48" y="0" height="52"/></clipPath><clipPath id="e78f69bd44"><path d="M 394.636719 467.851562 L 448.511719 467.851562 L 448.511719 516.242188 L 394.636719 516.242188 Z M 394.636719 467.851562 " clip-rule="nonzero"/></clipPath><clipPath id="b73895b765"><path d="M 412.570312 498.125 L 421.410156 476.855469 L 430.21875 498.125 Z M 416.1875 467.851562 L 394.636719 516.238281 L 405.015625 516.238281 L 409.414062 505.597656 L 433.292969 505.597656 L 437.691406 516.238281 L 448.367188 516.238281 L 426.714844 467.851562 Z M 416.1875 467.851562 " clip-rule="nonzero"/></clipPath><clipPath id="4a85776d56"><path d="M 0.636719 0.851562 L 54.511719 0.851562 L 54.511719 49.238281 L 0.636719 49.238281 Z M 0.636719 0.851562 " clip-rule="nonzero"/></clipPath><clipPath id="167af7c7aa"><path d="M 18.570312 31.125 L 27.410156 9.855469 L 36.21875 31.125 Z M 22.1875 0.851562 L 0.636719 49.238281 L 11.015625 49.238281 L 15.414062 38.597656 L 39.292969 38.597656 L 43.691406 49.238281 L 54.367188 49.238281 L 32.714844 0.851562 Z M 22.1875 0.851562 " clip-rule="nonzero"/></clipPath><clipPath id="803eda3a47"><rect x="0" width="55" y="0" height="50"/></clipPath><clipPath id="2638a99878"><path d="M 19.425781 309.480469 L 130.597656 309.480469 L 130.597656 431.996094 L 19.425781 431.996094 Z M 19.425781 309.480469 " clip-rule="nonzero"/></clipPath><clipPath id="3f3cb8ae7a"><path d="M 95.109375 405.179688 C 91.738281 409.726562 86.300781 411.988281 78.746094 411.988281 L 63.625 411.988281 L 63.625 377.382812 L 78.765625 377.382812 C 86.300781 377.382812 91.753906 379.597656 95.125 384.027344 C 97.324219 387.066406 98.429688 390.621094 98.429688 394.6875 C 98.429688 398.75 97.324219 402.253906 95.125 405.179688 M 63.625 329.125 L 75.972656 329.125 C 81.988281 329.125 86.398438 331.042969 89.175781 334.894531 C 91.027344 337.570312 91.953125 340.660156 91.953125 344.164062 C 91.953125 347.667969 91.027344 350.757812 89.175781 353.4375 C 86.398438 357.285156 81.988281 359.203125 75.972656 359.203125 L 63.625 359.203125 Z M 107.503906 365.484375 C 111.816406 363.5 115.304688 360.394531 117.996094 356.128906 C 120.691406 351.867188 122.015625 347.007812 122.015625 341.535156 C 122.015625 332.792969 119.15625 325.570312 113.453125 319.855469 C 106.695312 312.996094 96.84375 309.542969 83.902344 309.542969 L 19.746094 309.542969 L 19.746094 313.390625 C 27.433594 315.953125 31.28125 324.347656 31.28125 338.5625 L 31.28125 431.753906 L 88.628906 431.753906 C 101.453125 431.753906 111.816406 427.96875 119.75 420.382812 C 126.855469 413.394531 130.410156 405.230469 130.410156 395.910156 C 130.410156 379.945312 122.773438 369.796875 107.503906 365.484375 " clip-rule="nonzero"/></clipPath><clipPath id="b345f1867e"><path d="M 0.679688 0.480469 L 111.558594 0.480469 L 111.558594 122.761719 L 0.679688 122.761719 Z M 0.679688 0.480469 " clip-rule="nonzero"/></clipPath><clipPath id="ab11fc2c88"><path d="M 76.109375 96.179688 C 72.738281 100.726562 67.300781 102.988281 59.746094 102.988281 L 44.625 102.988281 L 44.625 68.382812 L 59.765625 68.382812 C 67.300781 68.382812 72.753906 70.597656 76.125 75.027344 C 78.324219 78.066406 79.429688 81.621094 79.429688 85.6875 C 79.429688 89.75 78.324219 93.253906 76.125 96.179688 M 44.625 20.125 L 56.972656 20.125 C 62.988281 20.125 67.398438 22.042969 70.175781 25.894531 C 72.027344 28.570312 72.953125 31.660156 72.953125 35.164062 C 72.953125 38.667969 72.027344 41.757812 70.175781 44.4375 C 67.398438 48.285156 62.988281 50.203125 56.972656 50.203125 L 44.625 50.203125 Z M 88.503906 56.484375 C 92.816406 54.5 96.304688 51.394531 98.996094 47.128906 C 101.691406 42.867188 103.015625 38.007812 103.015625 32.535156 C 103.015625 23.792969 100.15625 16.570312 94.453125 10.855469 C 87.695312 3.996094 77.84375 0.542969 64.902344 0.542969 L 0.746094 0.542969 L 0.746094 4.390625 C 8.433594 6.953125 12.28125 15.347656 12.28125 29.5625 L 12.28125 122.753906 L 69.628906 122.753906 C 82.453125 122.753906 92.816406 118.96875 100.75 111.382812 C 107.855469 104.394531 111.410156 96.230469 111.410156 86.910156 C 111.410156 70.945312 103.773438 60.796875 88.503906 56.484375 " clip-rule="nonzero"/></clipPath><clipPath id="f77928b86b"><rect x="0" width="112" y="0" height="123"/></clipPath><clipPath id="2bd9bd5c60"><path d="M 138 306.078125 L 278 306.078125 L 278 435.402344 L 138 435.402344 Z M 138 306.078125 " clip-rule="nonzero"/></clipPath><clipPath id="fff8658168"><path d="M 234.078125 399.414062 C 227.4375 406.867188 218.761719 410.601562 208.035156 410.601562 C 197.539062 410.601562 188.914062 406.816406 182.152344 399.230469 C 175.394531 391.644531 172.007812 382.160156 172.007812 370.738281 C 172.007812 359.085938 175.328125 349.519531 181.972656 342.066406 C 188.617188 334.613281 197.292969 330.875 208.019531 330.875 C 218.742188 330.875 227.417969 334.613281 234.0625 342.066406 C 240.707031 349.519531 244.027344 359.085938 244.027344 370.738281 C 244.027344 382.390625 240.707031 391.957031 234.0625 399.414062 M 258.457031 324.316406 C 245.484375 312.382812 228.675781 306.402344 208.035156 306.402344 C 187.757812 306.402344 171.0625 312.464844 157.941406 324.582031 C 144.820312 336.695312 138.277344 352.097656 138.277344 370.738281 C 138.277344 389.378906 144.804688 404.765625 157.859375 416.898438 C 170.914062 429.027344 187.523438 435.078125 207.6875 435.078125 C 230.296875 435.078125 248.078125 428.269531 261.019531 414.617188 C 272.324219 402.617188 277.972656 387.976562 277.972656 370.738281 C 277.972656 351.75 271.480469 336.265625 258.472656 324.316406 " clip-rule="nonzero"/></clipPath><clipPath id="004f4b47d8"><path d="M 0.238281 0.238281 L 140 0.238281 L 140 129.121094 L 0.238281 129.121094 Z M 0.238281 0.238281 " clip-rule="nonzero"/></clipPath><clipPath id="f68be15410"><path d="M 96.078125 93.414062 C 89.4375 100.867188 80.761719 104.601562 70.035156 104.601562 C 59.539062 104.601562 50.914062 100.816406 44.152344 93.230469 C 37.394531 85.644531 34.007812 76.160156 34.007812 64.738281 C 34.007812 53.085938 37.328125 43.519531 43.972656 36.066406 C 50.617188 28.613281 59.292969 24.875 70.019531 24.875 C 80.742188 24.875 89.417969 28.613281 96.0625 36.066406 C 102.707031 43.519531 106.027344 53.085938 106.027344 64.738281 C 106.027344 76.390625 102.707031 85.957031 96.0625 93.414062 M 120.457031 18.316406 C 107.484375 6.382812 90.675781 0.402344 70.035156 0.402344 C 49.757812 0.402344 33.0625 6.464844 19.941406 18.582031 C 6.820312 30.695312 0.277344 46.097656 0.277344 64.738281 C 0.277344 83.378906 6.804688 98.765625 19.859375 110.898438 C 32.914062 123.027344 49.523438 129.078125 69.6875 129.078125 C 92.296875 129.078125 110.078125 122.269531 123.019531 108.617188 C 134.324219 96.617188 139.972656 81.976562 139.972656 64.738281 C 139.972656 45.75 133.480469 30.265625 120.472656 18.316406 " clip-rule="nonzero"/></clipPath><clipPath id="dd3125d478"><rect x="0" width="140" y="0" height="130"/></clipPath><clipPath id="f1fd578acc"><path d="M 286.011719 306.078125 L 404.554688 306.078125 L 404.554688 435 L 286.011719 435 Z M 286.011719 306.078125 " clip-rule="nonzero"/></clipPath><clipPath id="5dd01bb759"><path d="M 404.203125 368.109375 L 355.070312 368.109375 L 355.070312 389.628906 L 373.777344 389.628906 L 373.777344 410.070312 C 369.8125 410.765625 365.847656 411.113281 361.894531 411.113281 C 349.898438 411.113281 339.933594 407.363281 332 399.84375 C 324.066406 392.324219 320.117188 382.621094 320.117188 370.738281 C 320.117188 358.742188 324.164062 348.972656 332.265625 341.453125 C 340.363281 333.933594 350.410156 330.183594 362.425781 330.183594 C 378.273438 330.183594 390.636719 334.035156 399.492188 341.71875 L 399.492188 315.671875 C 390.617188 309.492188 376.523438 306.402344 357.167969 306.402344 C 337.121094 306.402344 320.464844 312.234375 307.160156 323.886719 C 293.410156 335.902344 286.535156 351.519531 286.535156 370.738281 C 286.535156 391.363281 293.292969 407.394531 306.8125 418.816406 C 319.523438 429.539062 336.296875 434.894531 357.167969 434.894531 C 376.058594 434.894531 391.726562 431.507812 404.203125 424.730469 Z M 404.203125 368.109375 " clip-rule="nonzero"/></clipPath><clipPath id="91755d1087"><path d="M 0.320312 0.238281 L 118.398438 0.238281 L 118.398438 129 L 0.320312 129 Z M 0.320312 0.238281 " clip-rule="nonzero"/></clipPath><clipPath id="fdac77c6e7"><path d="M 118.203125 62.109375 L 69.070312 62.109375 L 69.070312 83.628906 L 87.777344 83.628906 L 87.777344 104.070312 C 83.8125 104.765625 79.847656 105.113281 75.894531 105.113281 C 63.898438 105.113281 53.933594 101.363281 46 93.84375 C 38.066406 86.324219 34.117188 76.621094 34.117188 64.738281 C 34.117188 52.742188 38.164062 42.972656 46.265625 35.453125 C 54.363281 27.933594 64.410156 24.183594 76.425781 24.183594 C 92.273438 24.183594 104.636719 28.035156 113.492188 35.71875 L 113.492188 9.671875 C 104.617188 3.492188 90.523438 0.402344 71.167969 0.402344 C 51.121094 0.402344 34.464844 6.234375 21.160156 17.886719 C 7.410156 29.902344 0.535156 45.519531 0.535156 64.738281 C 0.535156 85.363281 7.292969 101.394531 20.8125 112.816406 C 33.523438 123.539062 50.296875 128.894531 71.167969 128.894531 C 90.058594 128.894531 105.726562 125.507812 118.203125 118.730469 Z M 118.203125 62.109375 " clip-rule="nonzero"/></clipPath><clipPath id="e288ec1774"><rect x="0" width="119" y="0" height="129"/></clipPath><clipPath id="91223d8413"><path d="M 416 306.078125 L 556.566406 306.078125 L 556.566406 435.402344 L 416 435.402344 Z M 416 306.078125 " clip-rule="nonzero"/></clipPath><clipPath id="e45384979b"><path d="M 512.238281 399.414062 C 505.59375 406.867188 496.917969 410.601562 486.191406 410.601562 C 475.699219 410.601562 467.070312 406.816406 460.3125 399.230469 C 453.550781 391.644531 450.164062 382.160156 450.164062 370.738281 C 450.164062 359.085938 453.484375 349.519531 460.128906 342.066406 C 466.773438 334.613281 475.449219 330.875 486.175781 330.875 C 496.902344 330.875 505.578125 334.613281 512.222656 342.066406 C 518.863281 349.519531 522.1875 359.085938 522.1875 370.738281 C 522.1875 382.390625 518.863281 391.957031 512.222656 399.414062 M 536.613281 324.316406 C 523.625 312.382812 506.816406 306.402344 486.191406 306.402344 C 465.914062 306.402344 449.222656 312.464844 436.101562 324.582031 C 422.976562 336.695312 416.433594 352.097656 416.433594 370.738281 C 416.433594 389.378906 422.960938 404.765625 436.015625 416.898438 C 449.074219 429.027344 465.683594 435.078125 485.84375 435.078125 C 508.453125 435.078125 526.234375 428.269531 539.160156 414.617188 C 550.464844 402.617188 556.117188 387.976562 556.117188 370.738281 C 556.117188 351.75 549.621094 336.265625 536.613281 324.316406 " clip-rule="nonzero"/></clipPath><clipPath id="19dac059f8"><path d="M 0.398438 0.238281 L 140.320312 0.238281 L 140.320312 129.121094 L 0.398438 129.121094 Z M 0.398438 0.238281 " clip-rule="nonzero"/></clipPath><clipPath id="c13df25477"><path d="M 96.238281 93.414062 C 89.59375 100.867188 80.917969 104.601562 70.191406 104.601562 C 59.699219 104.601562 51.070312 100.816406 44.3125 93.230469 C 37.550781 85.644531 34.164062 76.160156 34.164062 64.738281 C 34.164062 53.085938 37.484375 43.519531 44.128906 36.066406 C 50.773438 28.613281 59.449219 24.875 70.175781 24.875 C 80.902344 24.875 89.578125 28.613281 96.222656 36.066406 C 102.863281 43.519531 106.1875 53.085938 106.1875 64.738281 C 106.1875 76.390625 102.863281 85.957031 96.222656 93.414062 M 120.613281 18.316406 C 107.625 6.382812 90.816406 0.402344 70.191406 0.402344 C 49.914062 0.402344 33.222656 6.464844 20.101562 18.582031 C 6.976562 30.695312 0.433594 46.097656 0.433594 64.738281 C 0.433594 83.378906 6.960938 98.765625 20.015625 110.898438 C 33.074219 123.027344 49.683594 129.078125 69.84375 129.078125 C 92.453125 129.078125 110.234375 122.269531 123.160156 108.617188 C 134.464844 96.617188 140.117188 81.976562 140.117188 64.738281 C 140.117188 45.75 133.621094 30.265625 120.613281 18.316406 " clip-rule="nonzero"/></clipPath><clipPath id="ce16149972"><rect x="0" width="141" y="0" height="130"/></clipPath><clipPath id="39cb56a50e"><path d="M 597.183594 280 L 837.332031 280 L 837.332031 492.894531 L 597.183594 492.894531 Z M 597.183594 280 " clip-rule="nonzero"/></clipPath><clipPath id="c46776557b"><path d="M 801.972656 315.105469 C 779.347656 292.480469 749.253906 280.019531 717.257812 280.019531 C 685.261719 280.019531 655.167969 292.480469 632.527344 315.105469 C 609.882812 337.730469 597.441406 367.839844 597.441406 399.835938 C 597.441406 431.832031 609.902344 461.925781 632.527344 484.570312 C 635.253906 487.296875 638.09375 489.875 641.019531 492.304688 C 641.039062 485.3125 641.054688 478.289062 641.070312 471.265625 C 623.535156 452.558594 612.792969 427.4375 612.792969 399.835938 C 612.792969 386.765625 615.207031 374.253906 619.601562 362.71875 C 622.941406 353.976562 627.402344 345.796875 632.839844 338.359375 C 651.863281 312.3125 682.617188 295.371094 717.257812 295.371094 C 774.867188 295.371094 821.722656 342.242188 821.722656 399.835938 C 821.722656 415.304688 818.332031 429.996094 812.285156 443.21875 C 816.351562 447.746094 819.65625 452.589844 822.199219 457.761719 C 831.917969 440.226562 837.074219 420.429688 837.074219 399.835938 C 837.074219 367.839844 824.613281 337.746094 801.988281 315.105469 " clip-rule="nonzero"/></clipPath><clipPath id="23b737e5b8"><path d="M 0.359375 0 L 240.121094 0 L 240.121094 212.480469 L 0.359375 212.480469 Z M 0.359375 0 " clip-rule="nonzero"/></clipPath><clipPath id="29baecd545"><path d="M 204.972656 35.105469 C 182.347656 12.480469 152.253906 0.0195312 120.257812 0.0195312 C 88.261719 0.0195312 58.167969 12.480469 35.527344 35.105469 C 12.882812 57.730469 0.441406 87.839844 0.441406 119.835938 C 0.441406 151.832031 12.902344 181.925781 35.527344 204.570312 C 38.253906 207.296875 41.09375 209.875 44.019531 212.304688 C 44.039062 205.3125 44.054688 198.289062 44.070312 191.265625 C 26.535156 172.558594 15.792969 147.4375 15.792969 119.835938 C 15.792969 106.765625 18.207031 94.253906 22.601562 82.71875 C 25.941406 73.976562 30.402344 65.796875 35.839844 58.359375 C 54.863281 32.3125 85.617188 15.371094 120.257812 15.371094 C 177.867188 15.371094 224.722656 62.242188 224.722656 119.835938 C 224.722656 135.304688 221.332031 149.996094 215.285156 163.21875 C 219.351562 167.746094 222.65625 172.589844 225.199219 177.761719 C 234.917969 160.226562 240.074219 140.429688 240.074219 119.835938 C 240.074219 87.839844 227.613281 57.746094 204.988281 35.105469 " clip-rule="nonzero"/></clipPath><clipPath id="f97daca3e5"><rect x="0" width="241" y="0" height="213"/></clipPath><clipPath id="74f99a10df"><path d="M 636.207031 355 L 797.304688 355 L 797.304688 527.914062 L 636.207031 527.914062 Z M 636.207031 355 " clip-rule="nonzero"/></clipPath><clipPath id="5019349202"><path d="M 791.328125 412.660156 C 788.355469 416.265625 784.816406 418.859375 780.867188 420.644531 C 778.027344 421.917969 774.953125 422.757812 771.710938 423.253906 C 762.769531 424.578125 754.292969 422.90625 746.292969 418.742188 C 745.949219 418.5625 745.617188 418.332031 745.105469 418.015625 C 749.484375 416.398438 753.53125 414.332031 756.839844 411.820312 C 765.648438 405.109375 769.066406 395.292969 758.855469 382.683594 C 754.625 377.460938 749.152344 373.972656 742.921875 371.726562 C 727.453125 366.121094 711.769531 365.609375 696.121094 370.800781 C 668.140625 380.089844 665.332031 407.605469 673.28125 424.246094 C 677.246094 432.542969 682.832031 439.683594 688.601562 446.738281 C 694.898438 454.441406 701.308594 462.074219 707.277344 470.042969 C 711.804688 476.074219 714.992188 482.914062 715.933594 490.535156 C 716.546875 495.476562 716.265625 500.101562 715.191406 504.285156 C 713.671875 510.199219 710.546875 515.257812 706.035156 519.140625 C 701.839844 522.761719 696.433594 525.355469 690.039062 526.644531 C 686.585938 527.339844 683.015625 527.753906 679.476562 527.769531 C 665.859375 527.902344 652.226562 527.835938 638.609375 527.835938 C 638.113281 527.835938 637.617188 527.769531 637.039062 527.734375 L 637.039062 524.167969 C 637.484375 524.050781 637.914062 523.902344 638.34375 523.820312 C 648.804688 521.738281 654.851562 515.160156 657.050781 504.996094 C 657.152344 504.550781 657.234375 504.101562 657.332031 503.640625 C 657.992188 500.21875 658.375 496.714844 658.375 493.261719 C 658.375 490.863281 658.390625 488.484375 658.390625 486.089844 C 658.472656 454.011719 658.441406 421.949219 658.40625 389.871094 C 658.40625 384.765625 657.8125 379.707031 656.160156 374.832031 C 653.332031 366.488281 647.613281 361.363281 639.019531 359.445312 C 638.625 359.363281 638.246094 359.28125 637.847656 359.183594 C 637.617188 359.132812 637.402344 359.066406 636.9375 358.949219 C 636.9375 358.074219 636.9375 357.28125 636.9375 356.488281 C 636.9375 356.15625 636.988281 355.828125 637.019531 355.398438 C 637.5 355.363281 637.878906 355.296875 638.261719 355.296875 C 670.601562 355.316406 702.960938 355.183594 735.304688 355.429688 C 747.945312 355.53125 760.40625 357.414062 772.242188 362.238281 C 780.734375 365.710938 788.105469 370.667969 792.867188 378.816406 C 798.386719 388.285156 799.128906 403.273438 791.363281 412.660156 " clip-rule="nonzero"/></clipPath><clipPath id="5e149a70e1"><path d="M 0.71875 0 L 161.304688 0 L 161.304688 172.914062 L 0.71875 172.914062 Z M 0.71875 0 " clip-rule="nonzero"/></clipPath><clipPath id="1b11082a25"><path d="M 155.328125 57.660156 C 152.355469 61.265625 148.816406 63.859375 144.867188 65.644531 C 142.027344 66.917969 138.953125 67.757812 135.710938 68.253906 C 126.769531 69.578125 118.292969 67.90625 110.292969 63.742188 C 109.949219 63.5625 109.617188 63.332031 109.105469 63.015625 C 113.484375 61.398438 117.53125 59.332031 120.839844 56.820312 C 129.648438 50.109375 133.066406 40.292969 122.855469 27.683594 C 118.625 22.460938 113.152344 18.972656 106.921875 16.726562 C 91.453125 11.121094 75.769531 10.609375 60.121094 15.800781 C 32.140625 25.089844 29.332031 52.605469 37.28125 69.246094 C 41.246094 77.542969 46.832031 84.683594 52.601562 91.738281 C 58.898438 99.441406 65.308594 107.074219 71.277344 115.042969 C 75.804688 121.074219 78.992188 127.914062 79.933594 135.535156 C 80.546875 140.476562 80.265625 145.101562 79.191406 149.285156 C 77.671875 155.199219 74.546875 160.257812 70.035156 164.140625 C 65.839844 167.761719 60.433594 170.355469 54.039062 171.644531 C 50.585938 172.339844 47.015625 172.753906 43.476562 172.769531 C 29.859375 172.902344 16.226562 172.835938 2.609375 172.835938 C 2.113281 172.835938 1.617188 172.769531 1.039062 172.734375 L 1.039062 169.167969 C 1.484375 169.050781 1.914062 168.902344 2.34375 168.820312 C 12.804688 166.738281 18.851562 160.160156 21.050781 149.996094 C 21.152344 149.550781 21.234375 149.101562 21.332031 148.640625 C 21.992188 145.21875 22.375 141.714844 22.375 138.261719 C 22.375 135.863281 22.390625 133.484375 22.390625 131.089844 C 22.472656 99.011719 22.441406 66.949219 22.40625 34.871094 C 22.40625 29.765625 21.8125 24.707031 20.160156 19.832031 C 17.332031 11.488281 11.613281 6.363281 3.019531 4.445312 C 2.625 4.363281 2.246094 4.28125 1.847656 4.183594 C 1.617188 4.132812 1.402344 4.066406 0.9375 3.949219 C 0.9375 3.074219 0.9375 2.28125 0.9375 1.488281 C 0.9375 1.15625 0.988281 0.828125 1.019531 0.398438 C 1.5 0.363281 1.878906 0.296875 2.261719 0.296875 C 34.601562 0.316406 66.960938 0.183594 99.304688 0.429688 C 111.945312 0.53125 124.40625 2.414062 136.242188 7.238281 C 144.734375 10.710938 152.105469 15.667969 156.867188 23.816406 C 162.386719 33.285156 163.128906 48.273438 155.363281 57.660156 " clip-rule="nonzero"/></clipPath><clipPath id="38fb4a340d"><rect x="0" width="162" y="0" height="173"/></clipPath><clipPath id="0c6b4c8eb0"><path d="M 711.253906 425 L 812 425 L 812 527.914062 L 711.253906 527.914062 Z M 711.253906 425 " clip-rule="nonzero"/></clipPath><clipPath id="d1f9fe3b93"><path d="M 802.003906 512.234375 C 796.1875 518.746094 788.683594 522.578125 780.421875 524.992188 C 770.96875 527.753906 761.265625 528.117188 751.46875 527.769531 C 753.746094 525.390625 756.210938 523.289062 758.109375 520.761719 C 760.65625 517.355469 762.539062 513.871094 763.84375 510.300781 C 765.945312 504.515625 766.472656 498.535156 765.628906 492.417969 C 765.132812 488.734375 764.144531 485.015625 762.722656 481.230469 C 758.921875 471.183594 752.226562 462.984375 744.542969 455.695312 C 735.453125 447.070312 725.949219 438.90625 716.664062 430.492188 C 714.976562 428.972656 713.308594 427.4375 711.671875 425.867188 C 715.753906 425.421875 719.703125 425.207031 723.519531 425.15625 C 741.699219 424.972656 756.839844 429.054688 768.40625 433.964844 C 772.125 435.632812 775.792969 437.417969 779.332031 439.402344 C 784.089844 442.078125 788.652344 445.085938 792.898438 448.605469 C 796.816406 451.847656 800.238281 455.414062 803.03125 459.367188 C 806.402344 464.125 808.847656 469.464844 810.152344 475.480469 C 810.269531 475.992188 810.367188 476.519531 810.46875 477.03125 C 812.8125 489.972656 811.078125 502.035156 801.972656 512.21875 " clip-rule="nonzero"/></clipPath><clipPath id="ac647f2e97"><path d="M 0.601562 0 L 101 0 L 101 102.914062 L 0.601562 102.914062 Z M 0.601562 0 " clip-rule="nonzero"/></clipPath><clipPath id="8d316dd722"><path d="M 91.003906 87.234375 C 85.1875 93.746094 77.683594 97.578125 69.421875 99.992188 C 59.96875 102.753906 50.265625 103.117188 40.46875 102.769531 C 42.746094 100.390625 45.210938 98.289062 47.109375 95.761719 C 49.65625 92.355469 51.539062 88.871094 52.84375 85.300781 C 54.945312 79.515625 55.472656 73.535156 54.628906 67.417969 C 54.132812 63.734375 53.144531 60.015625 51.722656 56.230469 C 47.921875 46.183594 41.226562 37.984375 33.542969 30.695312 C 24.453125 22.070312 14.949219 13.90625 5.664062 5.492188 C 3.976562 3.972656 2.308594 2.4375 0.671875 0.867188 C 4.753906 0.421875 8.703125 0.207031 12.519531 0.15625 C 30.699219 -0.0273438 45.839844 4.054688 57.40625 8.964844 C 61.125 10.632812 64.792969 12.417969 68.332031 14.402344 C 73.089844 17.078125 77.652344 20.085938 81.898438 23.605469 C 85.816406 26.847656 89.238281 30.414062 92.03125 34.367188 C 95.402344 39.125 97.847656 44.464844 99.152344 50.480469 C 99.269531 50.992188 99.367188 51.519531 99.46875 52.03125 C 101.8125 64.972656 100.078125 77.035156 90.972656 87.21875 " clip-rule="nonzero"/></clipPath><clipPath id="99610adac2"><rect x="0" width="101" y="0" height="103"/></clipPath><clipPath id="8982d256f8"><path d="M 1020 464 L 1139.75 464 L 1139.75 513.203125 L 1020 513.203125 Z M 1020 464 " clip-rule="nonzero"/></clipPath><clipPath id="2f8038d500"><path d="M 1020.261719 502.390625 L 1020.261719 467.222656 L 1029.949219 464.101562 L 1029.949219 500.90625 C 1029.949219 502.144531 1030.246094 503.035156 1030.855469 503.597656 C 1031.335938 504.027344 1032.113281 504.261719 1033.152344 504.261719 L 1139.1875 504.261719 L 1139.1875 513.003906 L 1031.070312 513.003906 C 1027.433594 513.003906 1024.660156 511.960938 1022.773438 509.878906 C 1021.105469 507.976562 1020.261719 505.5 1020.261719 502.410156 " clip-rule="nonzero"/></clipPath><clipPath id="6aa6cb55f6"><path d="M 0.238281 0 L 119.28125 0 L 119.28125 49.121094 L 0.238281 49.121094 Z M 0.238281 0 " clip-rule="nonzero"/></clipPath><clipPath id="e678f12b52"><path d="M 0.261719 38.390625 L 0.261719 3.222656 L 9.949219 0.101562 L 9.949219 36.90625 C 9.949219 38.144531 10.246094 39.035156 10.855469 39.597656 C 11.335938 40.027344 12.113281 40.261719 13.152344 40.261719 L 119.1875 40.261719 L 119.1875 49.003906 L 11.070312 49.003906 C 7.433594 49.003906 4.660156 47.960938 2.773438 45.878906 C 1.105469 43.976562 0.261719 41.5 0.261719 38.410156 " clip-rule="nonzero"/></clipPath><clipPath id="838f07f1ed"><rect x="0" width="120" y="0" height="50"/></clipPath><clipPath id="1a7bb31312"><path d="M 1137 462.125 L 1181.816406 462.125 L 1181.816406 513.203125 L 1137 513.203125 Z M 1137 462.125 " clip-rule="nonzero"/></clipPath><clipPath id="1091a55cd7"><path d="M 1158.441406 467.984375 C 1158.441406 466.597656 1158.96875 465.390625 1160.011719 464.347656 C 1161.003906 463.355469 1162.191406 462.859375 1163.582031 462.859375 C 1164.917969 462.859375 1166.125 463.355469 1167.183594 464.347656 C 1168.226562 465.390625 1168.753906 466.613281 1168.753906 467.984375 C 1168.753906 469.355469 1168.226562 470.5625 1167.183594 471.554688 C 1166.140625 472.59375 1164.9375 473.125 1163.582031 473.125 C 1162.242188 473.125 1161.050781 472.628906 1160.011719 471.636719 C 1158.96875 470.59375 1158.441406 469.371094 1158.441406 468 M 1137.320312 513.003906 L 1137.320312 504.261719 L 1147.253906 504.261719 L 1147.253906 495.1875 C 1147.253906 489.070312 1148.921875 484.34375 1152.242188 480.992188 C 1155.234375 478 1158.953125 476.527344 1163.414062 476.546875 C 1168.339844 476.546875 1172.703125 478.28125 1176.488281 481.75 L 1169.894531 488.3125 C 1168.851562 487.371094 1167.945312 486.675781 1167.167969 486.230469 C 1165.976562 485.570312 1164.703125 485.253906 1163.347656 485.253906 C 1159.070312 485.253906 1156.9375 488.578125 1156.9375 495.1875 L 1156.9375 504.261719 L 1174.585938 504.261719 L 1181.460938 513.003906 Z M 1137.320312 513.003906 " clip-rule="nonzero"/></clipPath><clipPath id="dca7b3531a"><path d="M 0.121094 0.71875 L 44.519531 0.71875 L 44.519531 51.121094 L 0.121094 51.121094 Z M 0.121094 0.71875 " clip-rule="nonzero"/></clipPath><clipPath id="89375a1661"><path d="M 21.441406 5.984375 C 21.441406 4.597656 21.96875 3.390625 23.011719 2.347656 C 24.003906 1.355469 25.191406 0.859375 26.582031 0.859375 C 27.917969 0.859375 29.125 1.355469 30.183594 2.347656 C 31.226562 3.390625 31.753906 4.613281 31.753906 5.984375 C 31.753906 7.355469 31.226562 8.5625 30.183594 9.554688 C 29.140625 10.59375 27.9375 11.125 26.582031 11.125 C 25.242188 11.125 24.050781 10.628906 23.011719 9.636719 C 21.96875 8.59375 21.441406 7.371094 21.441406 6 M 0.320312 51.003906 L 0.320312 42.261719 L 10.253906 42.261719 L 10.253906 33.1875 C 10.253906 27.070312 11.921875 22.34375 15.242188 18.992188 C 18.234375 16 21.953125 14.527344 26.414062 14.546875 C 31.339844 14.546875 35.703125 16.28125 39.488281 19.75 L 32.894531 26.3125 C 31.851562 25.371094 30.945312 24.675781 30.167969 24.230469 C 28.976562 23.570312 27.703125 23.253906 26.347656 23.253906 C 22.070312 23.253906 19.9375 26.578125 19.9375 33.1875 L 19.9375 42.261719 L 37.585938 42.261719 L 44.460938 51.003906 Z M 0.320312 51.003906 " clip-rule="nonzero"/></clipPath><clipPath id="1195c879fa"><rect x="0" width="45" y="0" height="52"/></clipPath><clipPath id="06a3cf08a0"><path d="M 1190 477.148438 L 1230.894531 477.148438 L 1230.894531 528 L 1190 528 Z M 1190 477.148438 " clip-rule="nonzero"/></clipPath><clipPath id="d2a7494793"><path d="M 1199.808594 495.617188 C 1199.808594 498.757812 1200.632812 501.101562 1202.285156 502.671875 C 1203.425781 503.714844 1204.8125 504.242188 1206.433594 504.242188 L 1213.09375 504.242188 L 1213.09375 497.46875 C 1213.09375 495.816406 1213.078125 494.707031 1213.027344 494.113281 C 1212.78125 491.585938 1211.988281 489.566406 1210.632812 488.0625 C 1209.492188 486.726562 1208.101562 486.0625 1206.449219 486.0625 C 1204.550781 486.0625 1202.996094 486.921875 1201.757812 488.640625 C 1200.46875 490.492188 1199.824219 492.808594 1199.824219 495.601562 M 1190.203125 495.535156 C 1190.203125 491.699219 1191.082031 488.261719 1192.832031 485.238281 C 1194.222656 482.808594 1196.054688 480.957031 1198.335938 479.667969 C 1200.714844 478.28125 1203.441406 477.585938 1206.53125 477.554688 C 1212.746094 477.554688 1217.191406 479.851562 1219.886719 484.429688 C 1221.738281 487.652344 1222.644531 491.929688 1222.644531 497.234375 L 1222.644531 504.226562 L 1230.761719 504.226562 L 1230.761719 512.96875 L 1222.429688 512.96875 C 1222 515.664062 1221.355469 517.730469 1220.53125 519.148438 C 1219.191406 521.679688 1217.308594 523.644531 1214.894531 525.050781 C 1212.25 526.570312 1209.292969 527.347656 1206.019531 527.347656 C 1203.839844 527.347656 1201.441406 527 1198.847656 526.324219 C 1197.507812 525.925781 1196.269531 525.464844 1195.128906 524.902344 L 1190.800781 515.117188 C 1194.78125 517.644531 1199.128906 518.917969 1203.871094 518.933594 C 1206.617188 518.933594 1208.796875 518.207031 1210.417969 516.753906 C 1211.457031 515.910156 1212.269531 514.636719 1212.863281 512.96875 L 1206.449219 512.96875 C 1201.890625 512.96875 1198.121094 511.480469 1195.128906 508.492188 C 1191.859375 505.21875 1190.222656 500.886719 1190.222656 495.535156 " clip-rule="nonzero"/></clipPath><clipPath id="d26502fa39"><path d="M 0.160156 0.359375 L 40.894531 0.359375 L 40.894531 50.519531 L 0.160156 50.519531 Z M 0.160156 0.359375 " clip-rule="nonzero"/></clipPath><clipPath id="cd38ef8c2d"><path d="M 9.808594 18.617188 C 9.808594 21.757812 10.632812 24.101562 12.285156 25.671875 C 13.425781 26.714844 14.8125 27.242188 16.433594 27.242188 L 23.09375 27.242188 L 23.09375 20.46875 C 23.09375 18.816406 23.078125 17.707031 23.027344 17.113281 C 22.78125 14.585938 21.988281 12.566406 20.632812 11.0625 C 19.492188 9.726562 18.101562 9.0625 16.449219 9.0625 C 14.550781 9.0625 12.996094 9.921875 11.757812 11.640625 C 10.46875 13.492188 9.824219 15.808594 9.824219 18.601562 M 0.203125 18.535156 C 0.203125 14.699219 1.082031 11.261719 2.832031 8.238281 C 4.222656 5.808594 6.054688 3.957031 8.335938 2.667969 C 10.714844 1.28125 13.441406 0.585938 16.53125 0.554688 C 22.746094 0.554688 27.191406 2.851562 29.886719 7.429688 C 31.738281 10.652344 32.644531 14.929688 32.644531 20.234375 L 32.644531 27.226562 L 40.761719 27.226562 L 40.761719 35.96875 L 32.429688 35.96875 C 32 38.664062 31.355469 40.730469 30.53125 42.148438 C 29.191406 44.679688 27.308594 46.644531 24.894531 48.050781 C 22.25 49.570312 19.292969 50.347656 16.019531 50.347656 C 13.839844 50.347656 11.441406 50 8.847656 49.324219 C 7.507812 48.925781 6.269531 48.464844 5.128906 47.902344 L 0.800781 38.117188 C 4.78125 40.644531 9.128906 41.917969 13.871094 41.933594 C 16.617188 41.933594 18.796875 41.207031 20.417969 39.753906 C 21.457031 38.910156 22.269531 37.636719 22.863281 35.96875 L 16.449219 35.96875 C 11.890625 35.96875 8.121094 34.480469 5.128906 31.492188 C 1.859375 28.21875 0.222656 23.886719 0.222656 18.535156 " clip-rule="nonzero"/></clipPath><clipPath id="341b8989b8"><rect x="0" width="41" y="0" height="51"/></clipPath><clipPath id="d63c2401fe"><path d="M 1228.890625 477.148438 L 1342 477.148438 L 1342 530 L 1228.890625 530 Z M 1228.890625 477.148438 " clip-rule="nonzero"/></clipPath><clipPath id="2c16d744f5"><path d="M 1277.085938 524.851562 C 1277.085938 523.464844 1277.613281 522.242188 1278.65625 521.183594 C 1279.644531 520.191406 1280.835938 519.695312 1282.222656 519.695312 C 1283.5625 519.695312 1284.753906 520.191406 1285.828125 521.183594 C 1286.867188 522.222656 1287.398438 523.445312 1287.398438 524.851562 C 1287.398438 526.238281 1286.867188 527.429688 1285.828125 528.421875 C 1284.785156 529.460938 1283.578125 529.992188 1282.222656 529.992188 C 1280.886719 529.992188 1279.695312 529.496094 1278.65625 528.503906 C 1277.613281 527.464844 1277.085938 526.238281 1277.085938 524.867188 M 1228.910156 513.003906 L 1228.910156 504.261719 L 1326.003906 504.261719 C 1329.835938 504.261719 1331.753906 502.375 1331.753906 498.609375 L 1331.753906 480.925781 L 1341.371094 477.800781 L 1341.371094 499.054688 C 1341.371094 503.464844 1339.984375 506.9375 1337.226562 509.433594 C 1334.53125 511.8125 1330.910156 513.003906 1326.332031 513.003906 Z M 1263.664062 524.851562 C 1263.664062 523.464844 1264.195312 522.242188 1265.234375 521.183594 C 1266.226562 520.191406 1267.433594 519.695312 1268.839844 519.695312 C 1270.175781 519.695312 1271.367188 520.191406 1272.40625 521.183594 C 1273.449219 522.222656 1273.976562 523.445312 1273.976562 524.851562 C 1273.976562 526.238281 1273.449219 527.429688 1272.40625 528.421875 C 1271.367188 529.460938 1270.175781 529.992188 1268.839844 529.992188 C 1267.5 529.992188 1266.308594 529.496094 1265.234375 528.503906 C 1264.195312 527.464844 1263.664062 526.238281 1263.664062 524.867188 " clip-rule="nonzero"/></clipPath><clipPath id="ea7a743add"><path d="M 0.890625 0.601562 L 113.601562 0.601562 L 113.601562 53 L 0.890625 53 Z M 0.890625 0.601562 " clip-rule="nonzero"/></clipPath><clipPath id="237c114975"><path d="M 49.085938 47.851562 C 49.085938 46.464844 49.613281 45.242188 50.65625 44.183594 C 51.644531 43.191406 52.835938 42.695312 54.222656 42.695312 C 55.5625 42.695312 56.753906 43.191406 57.828125 44.183594 C 58.867188 45.222656 59.398438 46.445312 59.398438 47.851562 C 59.398438 49.238281 58.867188 50.429688 57.828125 51.421875 C 56.785156 52.460938 55.578125 52.992188 54.222656 52.992188 C 52.886719 52.992188 51.695312 52.496094 50.65625 51.503906 C 49.613281 50.464844 49.085938 49.238281 49.085938 47.867188 M 0.910156 36.003906 L 0.910156 27.261719 L 98.003906 27.261719 C 101.835938 27.261719 103.753906 25.375 103.753906 21.609375 L 103.753906 3.925781 L 113.371094 0.800781 L 113.371094 22.054688 C 113.371094 26.464844 111.984375 29.9375 109.226562 32.433594 C 106.53125 34.8125 102.910156 36.003906 98.332031 36.003906 Z M 35.664062 47.851562 C 35.664062 46.464844 36.195312 45.242188 37.234375 44.183594 C 38.226562 43.191406 39.433594 42.695312 40.839844 42.695312 C 42.175781 42.695312 43.367188 43.191406 44.40625 44.183594 C 45.449219 45.222656 45.976562 46.445312 45.976562 47.851562 C 45.976562 49.238281 45.449219 50.429688 44.40625 51.421875 C 43.367188 52.460938 42.175781 52.992188 40.839844 52.992188 C 39.5 52.992188 38.308594 52.496094 37.234375 51.503906 C 36.195312 50.464844 35.664062 49.238281 35.664062 47.867188 " clip-rule="nonzero"/></clipPath><clipPath id="d29376ed6f"><rect x="0" width="114" y="0" height="53"/></clipPath><clipPath id="dc65b810c5"><path d="M 878.347656 290 L 1188.828125 290 L 1188.828125 450 L 878.347656 450 Z M 878.347656 290 " clip-rule="nonzero"/></clipPath><clipPath id="590534a39e"><path d="M 931.035156 382.011719 L 901.832031 382.011719 L 901.832031 354.199219 L 931.035156 354.199219 Z M 1181.742188 392.574219 L 1181.742188 333.425781 C 1181.742188 333.425781 1177.511719 339.773438 1166.953125 339.773438 L 1144.773438 339.773438 C 1144.773438 339.773438 1173.644531 321.808594 1173.644531 319.707031 C 1174.886719 318.46875 1177 315.660156 1177 312.140625 C 1177 309.84375 1176.125 307.378906 1173.644531 304.917969 L 1156.738281 290.109375 C 1156.738281 290.109375 1157.085938 291.347656 1157.085938 293.464844 C 1157.085938 296.457031 1156.375 301.035156 1152.507812 304.902344 L 1106.730469 341.871094 C 1102.5 345.226562 1100.382812 348.214844 1100.382812 352.429688 L 1100.382812 369.519531 C 1100.382812 369.519531 1104.613281 363.171875 1115.175781 363.171875 L 1156.375 363.171875 L 1156.375 382.011719 L 954.289062 382.011719 L 954.289062 324.796875 C 953.941406 325.507812 951.480469 330.960938 939.496094 330.960938 L 891.273438 330.960938 C 878.597656 330.960938 878.597656 345.753906 878.597656 345.753906 L 878.597656 407.363281 L 931.035156 407.363281 L 931.035156 417.925781 L 891.273438 417.925781 C 891.273438 417.925781 878.597656 417.925781 878.597656 430.601562 L 878.597656 449.441406 C 878.945312 448.914062 883.355469 443.277344 893.390625 443.277344 L 941.597656 443.277344 C 941.597656 443.277344 954.273438 443.277344 954.273438 430.601562 L 954.273438 407.363281 L 1188.074219 407.363281 C 1188.074219 407.363281 1181.742188 405.25 1181.742188 392.574219 " clip-rule="nonzero"/></clipPath><clipPath id="114e663fe8"><path d="M 0.398438 0 L 310.238281 0 L 310.238281 159.519531 L 0.398438 159.519531 Z M 0.398438 0 " clip-rule="nonzero"/></clipPath><clipPath id="88b2b6300d"><path d="M 53.035156 92.011719 L 23.832031 92.011719 L 23.832031 64.199219 L 53.035156 64.199219 Z M 303.742188 102.574219 L 303.742188 43.425781 C 303.742188 43.425781 299.511719 49.773438 288.953125 49.773438 L 266.773438 49.773438 C 266.773438 49.773438 295.644531 31.808594 295.644531 29.707031 C 296.886719 28.46875 299 25.660156 299 22.140625 C 299 19.84375 298.125 17.378906 295.644531 14.917969 L 278.738281 0.109375 C 278.738281 0.109375 279.085938 1.347656 279.085938 3.464844 C 279.085938 6.457031 278.375 11.035156 274.507812 14.902344 L 228.730469 51.871094 C 224.5 55.226562 222.382812 58.214844 222.382812 62.429688 L 222.382812 79.519531 C 222.382812 79.519531 226.613281 73.171875 237.175781 73.171875 L 278.375 73.171875 L 278.375 92.011719 L 76.289062 92.011719 L 76.289062 34.796875 C 75.941406 35.507812 73.480469 40.960938 61.496094 40.960938 L 13.273438 40.960938 C 0.597656 40.960938 0.597656 55.753906 0.597656 55.753906 L 0.597656 117.363281 L 53.035156 117.363281 L 53.035156 127.925781 L 13.273438 127.925781 C 13.273438 127.925781 0.597656 127.925781 0.597656 140.601562 L 0.597656 159.441406 C 0.945312 158.914062 5.355469 153.277344 15.390625 153.277344 L 63.597656 153.277344 C 63.597656 153.277344 76.273438 153.277344 76.273438 140.601562 L 76.273438 117.363281 L 310.074219 117.363281 C 310.074219 117.363281 303.742188 115.25 303.742188 102.574219 " clip-rule="nonzero"/></clipPath><clipPath id="a00a43201f"><rect x="0" width="311" y="0" height="160"/></clipPath><clipPath id="2d28ccd18c"><path d="M 1198 324 L 1421 324 L 1421 450 L 1198 450 Z M 1198 324 " clip-rule="nonzero"/></clipPath><clipPath id="f8d5576ae0"><path d="M 1241.171875 382.011719 L 1221.886719 382.011719 L 1221.886719 354.199219 L 1241.171875 354.199219 Z M 1412.335938 392.574219 L 1412.335938 345.574219 C 1412.335938 345.574219 1412.335938 330.78125 1399.828125 330.78125 L 1380.640625 330.78125 C 1380.640625 330.78125 1380.640625 330.960938 1380.820312 330.960938 C 1382.0625 332.019531 1386.984375 336.25 1386.984375 345.574219 L 1386.984375 382.011719 L 1264.410156 382.011719 L 1264.410156 324.796875 C 1264.0625 325.507812 1261.597656 330.960938 1249.617188 330.960938 L 1211.308594 330.960938 C 1198.632812 330.960938 1198.632812 345.753906 1198.632812 345.753906 L 1198.632812 407.363281 L 1241.15625 407.363281 L 1241.15625 417.925781 L 1211.308594 417.925781 C 1211.308594 417.925781 1198.632812 417.925781 1198.632812 430.601562 L 1198.632812 449.441406 C 1198.980469 448.914062 1203.394531 443.277344 1213.425781 443.277344 L 1251.734375 443.277344 C 1251.734375 443.277344 1264.410156 443.277344 1264.410156 430.601562 L 1264.410156 407.363281 L 1420.253906 407.363281 C 1418.847656 407.019531 1412.335938 404.027344 1412.335938 392.574219 " clip-rule="nonzero"/></clipPath><clipPath id="d2f24275a2"><path d="M 0.558594 0.71875 L 222.320312 0.71875 L 222.320312 125.519531 L 0.558594 125.519531 Z M 0.558594 0.71875 " clip-rule="nonzero"/></clipPath><clipPath id="b4f03abea9"><path d="M 43.171875 58.011719 L 23.886719 58.011719 L 23.886719 30.199219 L 43.171875 30.199219 Z M 214.335938 68.574219 L 214.335938 21.574219 C 214.335938 21.574219 214.335938 6.78125 201.828125 6.78125 L 182.640625 6.78125 C 182.640625 6.78125 182.640625 6.960938 182.820312 6.960938 C 184.0625 8.019531 188.984375 12.25 188.984375 21.574219 L 188.984375 58.011719 L 66.410156 58.011719 L 66.410156 0.796875 C 66.0625 1.507812 63.597656 6.960938 51.617188 6.960938 L 13.308594 6.960938 C 0.632812 6.960938 0.632812 21.753906 0.632812 21.753906 L 0.632812 83.363281 L 43.15625 83.363281 L 43.15625 93.925781 L 13.308594 93.925781 C 13.308594 93.925781 0.632812 93.925781 0.632812 106.601562 L 0.632812 125.441406 C 0.980469 124.914062 5.394531 119.277344 15.425781 119.277344 L 53.734375 119.277344 C 53.734375 119.277344 66.410156 119.277344 66.410156 106.601562 L 66.410156 83.363281 L 222.253906 83.363281 C 220.847656 83.019531 214.335938 80.027344 214.335938 68.574219 " clip-rule="nonzero"/></clipPath><clipPath id="73422a8860"><rect x="0" width="223" y="0" height="126"/></clipPath><clipPath id="02887f15d0"><path d="M 1389 417.054688 L 1413 417.054688 L 1413 442 L 1389 442 Z M 1389 417.054688 " clip-rule="nonzero"/></clipPath><clipPath id="0ebfe84625"><path d="M 1400.703125 417.941406 C 1394.355469 417.941406 1389.085938 423.230469 1389.085938 429.558594 C 1389.085938 435.890625 1394.375 441.179688 1400.703125 441.179688 C 1407.03125 441.179688 1412.320312 435.890625 1412.320312 429.558594 C 1412.320312 423.230469 1407.03125 417.941406 1400.703125 417.941406 " clip-rule="nonzero"/></clipPath><clipPath id="841b8a1971"><path d="M 0 0.839844 L 23.398438 0.839844 L 23.398438 24.359375 L 0 24.359375 Z M 0 0.839844 " clip-rule="nonzero"/></clipPath><clipPath id="d23e08073f"><path d="M 11.703125 0.941406 C 5.355469 0.941406 0.0859375 6.230469 0.0859375 12.558594 C 0.0859375 18.890625 5.375 24.179688 11.703125 24.179688 C 18.03125 24.179688 23.320312 18.890625 23.320312 12.558594 C 23.320312 6.230469 18.03125 0.941406 11.703125 0.941406 " clip-rule="nonzero"/></clipPath><clipPath id="c04d03ca89"><rect x="0" width="24" y="0" height="25"/></clipPath></defs><rect x="-144" width="1728" fill="#ffffff" y="-80.999999" height="971.999992" fill-opacity="1"/><rect x="-144" width="1728" fill="#000000" y="-80.999999" height="971.999992" fill-opacity="1"/><g clip-path="url(#4fe41366ce)"><g clip-path="url(#75c47655d2)"><g transform="matrix(1, 0, 0, 1, 127, 467)"><g clip-path="url(#1b78354f9f)"><g clip-path="url(#867940cc69)"><g clip-path="url(#2dc03c9189)"><path fill="#fdf530" d="M 0.648438 0.847656 L 48.410156 0.847656 L 48.410156 49.171875 L 0.648438 49.171875 Z M 0.648438 0.847656 " fill-opacity="1" fill-rule="nonzero"/></g></g></g></g></g></g><g clip-path="url(#026ccf753e)"><g clip-path="url(#e77f4e6da2)"><g transform="matrix(1, 0, 0, 1, 212, 466)"><g clip-path="url(#f40e0b4108)"><g clip-path="url(#46cce569b6)"><g clip-path="url(#d181d108ce)"><path fill="#fdf530" d="M 0.21875 0.988281 L 53.265625 0.988281 L 53.265625 51.101562 L 0.21875 51.101562 Z M 0.21875 0.988281 " fill-opacity="1" fill-rule="nonzero"/></g></g></g></g></g></g><g clip-path="url(#fa473c8dc2)"><g clip-path="url(#26466152ef)"><g transform="matrix(1, 0, 0, 1, 307, 466)"><g clip-path="url(#2af69384e0)"><g clip-path="url(#1b096b67a4)"><g clip-path="url(#bea80d8aa8)"><path fill="#fdf530" d="M 0.539062 0.988281 L 47.113281 0.988281 L 47.113281 51.015625 L 0.539062 51.015625 Z M 0.539062 0.988281 " fill-opacity="1" fill-rule="nonzero"/></g></g></g></g></g></g><g clip-path="url(#e78f69bd44)"><g clip-path="url(#b73895b765)"><g transform="matrix(1, 0, 0, 1, 394, 467)"><g clip-path="url(#803eda3a47)"><g clip-path="url(#4a85776d56)"><g clip-path="url(#167af7c7aa)"><path fill="#fdf530" d="M 0.636719 0.851562 L 54.324219 0.851562 L 54.324219 49.242188 L 0.636719 49.242188 Z M 0.636719 0.851562 " fill-opacity="1" fill-rule="nonzero"/></g></g></g></g></g></g><g clip-path="url(#2638a99878)"><g clip-path="url(#3f3cb8ae7a)"><g transform="matrix(1, 0, 0, 1, 19, 309)"><g clip-path="url(#f77928b86b)"><g clip-path="url(#b345f1867e)"><g clip-path="url(#ab11fc2c88)"><rect x="-335.8" width="2073.6" fill="#006f3f" height="1166.39999" y="-487.199998" fill-opacity="1"/></g></g></g></g></g></g><g clip-path="url(#2bd9bd5c60)"><g clip-path="url(#fff8658168)"><g transform="matrix(1, 0, 0, 1, 138, 306)"><g clip-path="url(#dd3125d478)"><g clip-path="url(#004f4b47d8)"><g clip-path="url(#f68be15410)"><rect x="-454.8" width="2073.6" fill="#006f3f" height="1166.39999" y="-484.199998" fill-opacity="1"/></g></g></g></g></g></g><g clip-path="url(#f1fd578acc)"><g clip-path="url(#5dd01bb759)"><g transform="matrix(1, 0, 0, 1, 286, 306)"><g clip-path="url(#e288ec1774)"><g clip-path="url(#91755d1087)"><g clip-path="url(#fdac77c6e7)"><rect x="-602.8" width="2073.6" fill="#006f3f" height="1166.39999" y="-484.199998" fill-opacity="1"/></g></g></g></g></g></g><g clip-path="url(#91223d8413)"><g clip-path="url(#e45384979b)"><g transform="matrix(1, 0, 0, 1, 416, 306)"><g clip-path="url(#ce16149972)"><g clip-path="url(#19dac059f8)"><g clip-path="url(#c13df25477)"><rect x="-732.8" width="2073.6" fill="#006f3f" height="1166.39999" y="-484.199998" fill-opacity="1"/></g></g></g></g></g></g><g clip-path="url(#39cb56a50e)"><g clip-path="url(#c46776557b)"><g transform="matrix(1, 0, 0, 1, 597, 280)"><g clip-path="url(#f97daca3e5)"><g clip-path="url(#23b737e5b8)"><g clip-path="url(#29baecd545)"><rect x="-913.8" width="2073.6" fill="#fdf530" height="1166.39999" y="-458.199998" fill-opacity="1"/></g></g></g></g></g></g><g clip-path="url(#74f99a10df)"><g clip-path="url(#5019349202)"><g transform="matrix(1, 0, 0, 1, 636, 355)"><g clip-path="url(#38fb4a340d)"><g clip-path="url(#5e149a70e1)"><g clip-path="url(#1b11082a25)"><rect x="-952.8" width="2073.6" fill="#006f3f" height="1166.39999" y="-533.199998" fill-opacity="1"/></g></g></g></g></g></g><g clip-path="url(#0c6b4c8eb0)"><g clip-path="url(#d1f9fe3b93)"><g transform="matrix(1, 0, 0, 1, 711, 425)"><g clip-path="url(#99610adac2)"><g clip-path="url(#ac647f2e97)"><g clip-path="url(#8d316dd722)"><rect x="-1027.8" width="2073.6" fill="#006f3f" height="1166.39999" y="-603.199998" fill-opacity="1"/></g></g></g></g></g></g><g clip-path="url(#8982d256f8)"><g clip-path="url(#2f8038d500)"><g transform="matrix(1, 0, 0, 1, 1020, 464)"><g clip-path="url(#838f07f1ed)"><g clip-path="url(#6aa6cb55f6)"><g clip-path="url(#e678f12b52)"><rect x="-1336.8" width="2073.6" fill="#fdf530" height="1166.39999" y="-642.199998" fill-opacity="1"/></g></g></g></g></g></g><g clip-path="url(#1a7bb31312)"><g clip-path="url(#1091a55cd7)"><g transform="matrix(1, 0, 0, 1, 1137, 462)"><g clip-path="url(#1195c879fa)"><g clip-path="url(#dca7b3531a)"><g clip-path="url(#89375a1661)"><rect x="-1453.8" width="2073.6" fill="#fdf530" height="1166.39999" y="-640.199998" fill-opacity="1"/></g></g></g></g></g></g><g clip-path="url(#06a3cf08a0)"><g clip-path="url(#d2a7494793)"><g transform="matrix(1, 0, 0, 1, 1190, 477)"><g clip-path="url(#341b8989b8)"><g clip-path="url(#d26502fa39)"><g clip-path="url(#cd38ef8c2d)"><rect x="-1506.8" width="2073.6" fill="#fdf530" height="1166.39999" y="-655.199998" fill-opacity="1"/></g></g></g></g></g></g><g clip-path="url(#d63c2401fe)"><g clip-path="url(#2c16d744f5)"><g transform="matrix(1, 0, 0, 1, 1228, 477)"><g clip-path="url(#d29376ed6f)"><g clip-path="url(#ea7a743add)"><g clip-path="url(#237c114975)"><rect x="-1544.8" width="2073.6" fill="#fdf530" height="1166.39999" y="-655.199998" fill-opacity="1"/></g></g></g></g></g></g><g clip-path="url(#dc65b810c5)"><g clip-path="url(#590534a39e)"><g transform="matrix(1, 0, 0, 1, 878, 290)"><g clip-path="url(#a00a43201f)"><g clip-path="url(#114e663fe8)"><g clip-path="url(#88b2b6300d)"><rect x="-1194.8" width="2073.6" fill="#006f3f" height="1166.39999" y="-468.199998" fill-opacity="1"/></g></g></g></g></g></g><g clip-path="url(#2d28ccd18c)"><g clip-path="url(#f8d5576ae0)"><g transform="matrix(1, 0, 0, 1, 1198, 324)"><g clip-path="url(#73422a8860)"><g clip-path="url(#d2f24275a2)"><g clip-path="url(#b4f03abea9)"><rect x="-1514.8" width="2073.6" fill="#006f3f" height="1166.39999" y="-502.199998" fill-opacity="1"/></g></g></g></g></g></g><g clip-path="url(#02887f15d0)"><g clip-path="url(#0ebfe84625)"><g transform="matrix(1, 0, 0, 1, 1389, 417)"><g clip-path="url(#c04d03ca89)"><g clip-path="url(#841b8a1971)"><g clip-path="url(#d23e08073f)"><rect x="-1705.8" width="2073.6" fill="#006f3f" height="1166.39999" y="-595.199998" fill-opacity="1"/></g></g></g></g></g></g></svg>