<svg xmlns="http://www.w3.org/2000/svg" xmlns:xlink="http://www.w3.org/1999/xlink" width="378" zoomAndPan="magnify" viewBox="0 0 283.5 283.500005" height="378" preserveAspectRatio="xMidYMid meet" version="1.0"><defs><clipPath id="d442a189f4"><path d="M 0 0 L 283 0 L 283 283 L 0 283 Z M 0 0 " clip-rule="nonzero"/></clipPath><clipPath id="8cc284206b"><path d="M 38.222656 33.964844 L 244.90625 33.964844 L 244.90625 217 L 38.222656 217 Z M 38.222656 33.964844 " clip-rule="nonzero"/></clipPath><clipPath id="6fd3a3070d"><path d="M 214.53125 64.234375 C 195.03125 44.734375 169.09375 33.992188 141.519531 33.992188 C 113.941406 33.992188 88.007812 44.734375 68.492188 64.234375 C 48.980469 83.730469 38.253906 109.683594 38.253906 137.257812 C 38.253906 164.832031 48.996094 190.773438 68.492188 210.285156 C 70.84375 212.632812 73.292969 214.855469 75.816406 216.949219 C 75.828125 210.925781 75.84375 204.871094 75.855469 198.816406 C 60.742188 182.695312 51.484375 161.042969 51.484375 137.257812 C 51.484375 125.992188 53.566406 115.210938 57.355469 105.269531 C 60.230469 97.734375 64.078125 90.683594 68.761719 84.273438 C 85.160156 61.824219 111.664062 47.226562 141.519531 47.226562 C 191.171875 47.226562 231.550781 87.621094 231.550781 137.257812 C 231.550781 150.589844 228.632812 163.253906 223.417969 174.648438 C 226.921875 178.550781 229.769531 182.722656 231.964844 187.179688 C 240.339844 172.070312 244.78125 155.007812 244.78125 137.257812 C 244.78125 109.683594 234.042969 83.746094 214.542969 64.234375 " clip-rule="nonzero"/></clipPath><clipPath id="4573217044"><path d="M 214.53125 64.234375 C 195.03125 44.734375 169.09375 33.992188 141.519531 33.992188 C 113.941406 33.992188 88.007812 44.734375 68.492188 64.234375 C 48.980469 83.730469 38.253906 109.683594 38.253906 137.257812 C 38.253906 164.832031 48.996094 190.773438 68.492188 210.285156 C 70.84375 212.632812 73.292969 214.855469 75.816406 216.949219 C 75.828125 210.925781 75.84375 204.871094 75.855469 198.816406 C 60.742188 182.695312 51.484375 161.042969 51.484375 137.257812 C 51.484375 125.992188 53.566406 115.210938 57.355469 105.269531 C 60.230469 97.734375 64.078125 90.683594 68.761719 84.273438 C 85.160156 61.824219 111.664062 47.226562 141.519531 47.226562 C 191.171875 47.226562 231.550781 87.621094 231.550781 137.257812 C 231.550781 150.589844 228.632812 163.253906 223.417969 174.648438 C 226.921875 178.550781 229.769531 182.722656 231.964844 187.179688 C 240.339844 172.070312 244.78125 155.007812 244.78125 137.257812 C 244.78125 109.683594 234.042969 83.746094 214.542969 64.234375 " clip-rule="nonzero"/></clipPath><clipPath id="adb42fec17"><path d="M 72.277344 98.722656 L 210.507812 98.722656 L 210.507812 247.644531 L 72.277344 247.644531 Z M 72.277344 98.722656 " clip-rule="nonzero"/></clipPath><clipPath id="8af508048c"><path d="M 205.359375 148.3125 C 202.792969 151.417969 199.746094 153.652344 196.339844 155.191406 C 193.890625 156.289062 191.242188 157.015625 188.453125 157.441406 C 180.746094 158.582031 173.4375 157.144531 166.542969 153.554688 C 166.246094 153.398438 165.960938 153.195312 165.519531 152.929688 C 169.292969 151.53125 172.78125 149.75 175.632812 147.585938 C 183.226562 141.804688 186.171875 133.34375 177.371094 122.476562 C 173.722656 117.972656 169.007812 114.96875 163.640625 113.03125 C 150.308594 108.203125 136.789062 107.761719 123.300781 112.234375 C 99.1875 120.238281 96.765625 143.953125 103.617188 158.296875 C 107.035156 165.445312 111.847656 171.597656 116.820312 177.683594 C 122.25 184.320312 127.773438 190.898438 132.914062 197.765625 C 136.820312 202.964844 139.566406 208.859375 140.378906 215.425781 C 140.90625 219.6875 140.664062 223.671875 139.738281 227.277344 C 138.429688 232.375 135.738281 236.734375 131.847656 240.082031 C 128.230469 243.203125 123.570312 245.4375 118.0625 246.546875 C 115.082031 247.148438 112.003906 247.503906 108.957031 247.519531 C 97.222656 247.628906 85.472656 247.574219 73.734375 247.574219 C 73.304688 247.574219 72.878906 247.519531 72.378906 247.488281 L 72.378906 244.410156 C 72.765625 244.3125 73.136719 244.183594 73.507812 244.113281 C 82.523438 242.316406 87.734375 236.648438 89.632812 227.886719 C 89.714844 227.503906 89.789062 227.121094 89.871094 226.722656 C 90.441406 223.773438 90.769531 220.753906 90.769531 217.777344 C 90.769531 215.710938 90.785156 213.660156 90.785156 211.597656 C 90.855469 183.949219 90.828125 156.316406 90.796875 128.667969 C 90.796875 124.269531 90.285156 119.910156 88.863281 115.707031 C 86.425781 108.515625 81.496094 104.101562 74.089844 102.449219 C 73.75 102.375 73.421875 102.304688 73.078125 102.21875 C 72.878906 102.179688 72.695312 102.121094 72.296875 102.019531 C 72.296875 101.265625 72.296875 100.582031 72.296875 99.898438 C 72.296875 99.613281 72.339844 99.328125 72.367188 98.960938 C 72.78125 98.929688 73.109375 98.875 73.4375 98.875 C 101.308594 98.890625 129.195312 98.773438 157.074219 98.984375 C 167.96875 99.070312 178.707031 100.695312 188.90625 104.855469 C 196.226562 107.84375 202.582031 112.121094 206.679688 119.140625 C 211.441406 127.304688 212.078125 140.222656 205.386719 148.3125 " clip-rule="nonzero"/></clipPath><clipPath id="087e70b967"><path d="M 205.359375 148.3125 C 202.792969 151.417969 199.746094 153.652344 196.339844 155.191406 C 193.890625 156.289062 191.242188 157.015625 188.453125 157.441406 C 180.746094 158.582031 173.4375 157.144531 166.542969 153.554688 C 166.246094 153.398438 165.960938 153.195312 165.519531 152.929688 C 169.292969 151.53125 172.78125 149.75 175.632812 147.585938 C 183.226562 141.804688 186.171875 133.34375 177.371094 122.476562 C 173.722656 117.972656 169.007812 114.96875 163.640625 113.03125 C 150.308594 108.203125 136.789062 107.761719 123.300781 112.234375 C 99.1875 120.238281 96.765625 143.953125 103.617188 158.296875 C 107.035156 165.445312 111.847656 171.597656 116.820312 177.683594 C 122.25 184.320312 127.773438 190.898438 132.914062 197.765625 C 136.820312 202.964844 139.566406 208.859375 140.378906 215.425781 C 140.90625 219.6875 140.664062 223.671875 139.738281 227.277344 C 138.429688 232.375 135.738281 236.734375 131.847656 240.082031 C 128.230469 243.203125 123.570312 245.4375 118.0625 246.546875 C 115.082031 247.148438 112.003906 247.503906 108.957031 247.519531 C 97.222656 247.628906 85.472656 247.574219 73.734375 247.574219 C 73.304688 247.574219 72.878906 247.519531 72.378906 247.488281 L 72.378906 244.410156 C 72.765625 244.3125 73.136719 244.183594 73.507812 244.113281 C 82.523438 242.316406 87.734375 236.648438 89.632812 227.886719 C 89.714844 227.503906 89.789062 227.121094 89.871094 226.722656 C 90.441406 223.773438 90.769531 220.753906 90.769531 217.777344 C 90.769531 215.710938 90.785156 213.660156 90.785156 211.597656 C 90.855469 183.949219 90.828125 156.316406 90.796875 128.667969 C 90.796875 124.269531 90.285156 119.910156 88.863281 115.707031 C 86.425781 108.515625 81.496094 104.101562 74.089844 102.449219 C 73.75 102.375 73.421875 102.304688 73.078125 102.21875 C 72.878906 102.179688 72.695312 102.121094 72.296875 102.019531 C 72.296875 101.265625 72.296875 100.582031 72.296875 99.898438 C 72.296875 99.613281 72.339844 99.328125 72.367188 98.960938 C 72.78125 98.929688 73.109375 98.875 73.4375 98.875 C 101.308594 98.890625 129.195312 98.773438 157.074219 98.984375 C 167.96875 99.070312 178.707031 100.695312 188.90625 104.855469 C 196.226562 107.84375 202.582031 112.121094 206.679688 119.140625 C 211.441406 127.304688 212.078125 140.222656 205.386719 148.3125 " clip-rule="nonzero"/></clipPath><clipPath id="19597af8e6"><path d="M 136.613281 159 L 223 159 L 223 247.644531 L 136.613281 247.644531 Z M 136.613281 159 " clip-rule="nonzero"/></clipPath><clipPath id="1f32eb2413"><path d="M 214.558594 234.128906 C 209.542969 239.742188 203.078125 243.046875 195.957031 245.125 C 187.808594 247.503906 179.449219 247.816406 171.003906 247.519531 C 172.96875 245.464844 175.089844 243.65625 176.730469 241.476562 C 178.921875 238.542969 180.542969 235.539062 181.671875 232.460938 C 183.480469 227.476562 183.933594 222.320312 183.210938 217.050781 C 182.78125 213.875 181.925781 210.671875 180.699219 207.40625 C 177.425781 198.746094 171.660156 191.683594 165.035156 185.402344 C 157.199219 177.96875 149.011719 170.929688 141.003906 163.679688 C 139.554688 162.371094 138.117188 161.042969 136.703125 159.691406 C 140.222656 159.308594 143.625 159.121094 146.917969 159.082031 C 162.582031 158.921875 175.632812 162.441406 185.601562 166.671875 C 188.804688 168.109375 191.96875 169.648438 195.019531 171.359375 C 199.117188 173.667969 203.050781 176.257812 206.710938 179.292969 C 210.085938 182.082031 213.035156 185.160156 215.441406 188.5625 C 218.347656 192.664062 220.457031 197.265625 221.582031 202.449219 C 221.679688 202.894531 221.765625 203.351562 221.851562 203.789062 C 223.871094 214.941406 222.378906 225.339844 214.53125 234.113281 " clip-rule="nonzero"/></clipPath><clipPath id="e01c7caa7e"><path d="M 214.558594 234.128906 C 209.542969 239.742188 203.078125 243.046875 195.957031 245.125 C 187.808594 247.503906 179.449219 247.816406 171.003906 247.519531 C 172.96875 245.464844 175.089844 243.65625 176.730469 241.476562 C 178.921875 238.542969 180.542969 235.539062 181.671875 232.460938 C 183.480469 227.476562 183.933594 222.320312 183.210938 217.050781 C 182.78125 213.875 181.925781 210.671875 180.699219 207.40625 C 177.425781 198.746094 171.660156 191.683594 165.035156 185.402344 C 157.199219 177.96875 149.011719 170.929688 141.003906 163.679688 C 139.554688 162.371094 138.117188 161.042969 136.703125 159.691406 C 140.222656 159.308594 143.625 159.121094 146.917969 159.082031 C 162.582031 158.921875 175.632812 162.441406 185.601562 166.671875 C 188.804688 168.109375 191.96875 169.648438 195.019531 171.359375 C 199.117188 173.667969 203.050781 176.257812 206.710938 179.292969 C 210.085938 182.082031 213.035156 185.160156 215.441406 188.5625 C 218.347656 192.664062 220.457031 197.265625 221.582031 202.449219 C 221.679688 202.894531 221.765625 203.351562 221.851562 203.789062 C 223.871094 214.941406 222.378906 225.339844 214.53125 234.113281 " clip-rule="nonzero"/></clipPath><clipPath id="b0de27afe4"><rect x="0" width="283" y="0" height="283"/></clipPath></defs><path fill="#ffffff" d="M 0 0 L 283 0 L 283 283 L 0 283 Z M 0 0 " fill-opacity="1" fill-rule="nonzero"/><g transform="matrix(1, 0, 0, 1, 0, 0.000000000000005262)"><g clip-path="url(#b0de27afe4)"><g clip-path="url(#d442a189f4)"><rect x="-62.37" width="408.24" fill="#ffffff" height="408.240007" y="-62.370001" fill-opacity="1"/><rect x="-62.37" width="408.24" fill="#ffffff" height="408.240007" y="-62.370001" fill-opacity="1"/><rect x="-62.37" width="408.24" fill="#000000" height="408.240007" y="-62.370001" fill-opacity="1"/></g><g clip-path="url(#8cc284206b)"><g clip-path="url(#6fd3a3070d)"><g clip-path="url(#4573217044)"><rect x="-62.37" width="408.24" fill="#fdf530" height="408.240007" y="-62.370001" fill-opacity="1"/></g></g></g><g clip-path="url(#adb42fec17)"><g clip-path="url(#8af508048c)"><g clip-path="url(#087e70b967)"><rect x="-62.37" width="408.24" fill="#006f3f" height="408.240007" y="-62.370001" fill-opacity="1"/></g></g></g><g clip-path="url(#19597af8e6)"><g clip-path="url(#1f32eb2413)"><g clip-path="url(#e01c7caa7e)"><rect x="-62.37" width="408.24" fill="#006f3f" height="408.240007" y="-62.370001" fill-opacity="1"/></g></g></g></g></g></svg>